<?xml version="1.0" encoding="utf-8"?>
<!-- Generator: Adobe Illustrator 16.0.0, SVG Export Plug-In . SVG Version: 6.00 Build 0)  -->
<!DOCTYPE svg PUBLIC "-//W3C//DTD SVG 1.1//EN" "http://www.w3.org/Graphics/SVG/1.1/DTD/svg11.dtd">
<svg version="1.1" id="图层_1" xmlns="http://www.w3.org/2000/svg" xmlns:xlink="http://www.w3.org/1999/xlink" x="0px" y="0px"
	 width="100px" height="100px" viewBox="0 0 100 100" enable-background="new 0 0 100 100" xml:space="preserve">
<path d="M50,98.5v-12c20.126,0,36.5-16.374,36.5-36.5S70.126,13.5,50,13.5v-12c26.743,0,48.5,21.757,48.5,48.5S76.743,98.5,50,98.5z
	"/>
<g>
	<path d="M50,98.5c-2.095,0-4.201-0.135-6.258-0.401l1.539-11.9C46.83,86.398,48.418,86.5,50,86.5V98.5z"/>
	<path d="M31.486,94.838c-3.912-1.617-7.604-3.747-10.975-6.331l7.302-9.523c2.537,1.945,5.315,3.549,8.257,4.765L31.486,94.838z
		 M11.55,79.563c-2.59-3.364-4.727-7.052-6.352-10.959l11.08-4.607c1.222,2.938,2.83,5.713,4.78,8.246L11.55,79.563z M1.914,56.358
		C1.639,54.264,1.5,52.125,1.5,50c0-2.104,0.137-4.222,0.406-6.296l11.9,1.546C13.603,46.813,13.5,48.411,13.5,50
		c0,1.605,0.105,3.22,0.312,4.798L1.914,56.358z M16.261,36.047L5.174,31.456c1.62-3.911,3.753-7.602,6.34-10.97l9.518,7.309
		C19.084,30.33,17.479,33.107,16.261,36.047z M27.778,21.044l-7.314-9.513c3.367-2.589,7.055-4.724,10.964-6.345l4.599,11.084
		C33.087,17.489,30.313,19.095,27.778,21.044z"/>
	<path d="M45.279,13.802L43.743,1.901C45.804,1.635,47.909,1.5,50,1.5v12C48.421,13.5,46.833,13.602,45.279,13.802z"/>
</g>
</svg>
